<svg xmlns="http://www.w3.org/2000/svg" width="1920" height="1282" viewBox="0 0 1920 1282">
  <metadata><?xpacket begin="﻿" id="W5M0MpCehiHzreSzNTczkc9d"?>
<x:xmpmeta xmlns:x="adobe:ns:meta/" x:xmptk="Adobe XMP Core 5.6-c138 79.159824, 2016/09/14-01:09:01        ">
   <rdf:RDF xmlns:rdf="http://www.w3.org/1999/02/22-rdf-syntax-ns#">
      <rdf:Description rdf:about=""/>
   </rdf:RDF>
</x:xmpmeta>
                                                                                                    
                                                                                                    
                                                                                                    
                                                                                                    
                                                                                                    
                                                                                                    
                                                                                                    
                                                                                                    
                                                                                                    
                                                                                                    
                                                                                                    
                                                                                                    
                                                                                                    
                                                                                                    
                                                                                                    
                                                                                                    
                                                                                                    
                                                                                                    
                                                                                                    
                                                                                                    
                           
<?xpacket end="w"?></metadata>
<defs>
    <style>
      .cls-1 {
        fill-rule: evenodd;
      }
    </style>
  </defs>
  <path id="Color_Fill_1" data-name="Color Fill 1" class="cls-1" d="M0,0H1920V332c-22.74-.945-47.11-15.872-68-22l-32-4c-32.63-9.512-74.32-18.842-106-28-23.92-6.917-46.4-.316-68-9-0.4-4.272-3.78-8.816-7-13h-3c-0.33.667-.67,1.333-1,2,2.91,4.207,5.55,6.046,7,12h-15c-20.62-10.857-47.7-12.348-80-12l-25,2c-8.69-1.84-19.89-6.053-33-4-8.13,1.273-19.03,7.048-31,4-20.16-5.133-34.13-8.764-50-15h-6c-5.4-5.4-12.84-13.868-21-16-0.33.333-.67,0.667-1,1l3,4q7.995,5.5,16,11v1l-29-2q-4.995,2-10,4c-8.56-.392-18.41-6.512-30-4-9.56,2.073-14.97,9.164-22,13-7.99,4.355-16.69,2.6-23,8-16.28,13.931-23.69,38-38,54l-12,7q-4.995,10.5-10,21c-8.19,9.874-55.23,65.926-49,83,1.45,3.961,7.56,8.238,10,13-4.62,10.553-8.88,30.119-18,36q-9.495,3-19,6c-11.34,10.628-21.39,23.533-35,32l-20,1c-6.45,2.185-14.87,15.176-20,20-8.51-.508-10.15-4.483-16-6-14.61-3.79-23.81,6.35-34,3l-46-20c-11.6-3.927-27.18-1.642-33-11-3.1-8.029-.3-23.282,1-30,5.281-27.358,6.233-106.433-7-121-22.1-24.323-66.262-25.061-105-33-30.544-6.26-71.456-5.953-110-6-103.014-.125-181.244,8.8-254,39-13.334,5.535-30.544,17.234-38,29-4.335,6.841-3.385,22.4-10,27-15.9,5.429-40.758-11.551-61-2-35.46,16.732-67.788,66.335-32,108,12.075,14.058,33.632,24.006,43,40v3c-15.33,14.425-42.376,22.521-59,37l-26,32c-31.487,58.2,25.129,102.893,62,122,13.925,7.216,38.593,9.877,49,21q-1,5-2,10c-5.945.064-6.818,0.211-9,4-8.234,16.363,16.5,44.238,33,37,7.8-3.545,12.555-12.917,18-19,0.073-10.042-2.71-14.661-6-21v-1c18.093-.314,47.687,18.279,53,29-6.427,11.705-2.007,18.661-1,33h-1c-25.972-12.223-29.917,3.335-53-18-9.723.752-25.753,11.061-28,10-5.382-3.252-7.263-10.233-13-13l-19-1c-31.9,0-38.376,13.247-51,32l-16,8q-0.5,5-1,10c-28.811-.638-34.014,12.676-48,26h-6q0.5,4,1,8c2.775,6.522,8.105,9.659,13,14,25.45,0.706,53.566-9.671,59-30,5.823,0.89,5.434,3.639,9,5,14.785,5.644,37.483-8.033,47,1l1,2,5-2,3-1c-1.806,5.041-.555,7.609,0,15h-5l-1,3c22.229,35.306,45.677,12.994,86,20,3.959,6.529.741,7.605,2,15l1,1c3.821,12.123,14.446,12.332,20,21,5.381,8.4.924,17.248,5,28q8,7,16,14c12.021,0.06,20.279-4.37,28-9-0.813-10.342,3.193-20.347,1-30,1.923,1.392.6,0.1,2,2,9.557,10.523,14.991,18.489,30,24-4.03,6.18-13.471,20.11-10,29,2.465,5.82,6.672,8.17,11,12,18.372,0.24,37.657.09,52-3,3.823-8.03,15.362-18.04,11-29-3.819-8.548-12.869-11.481-17-19q-0.5-2.5-1-5l6-4c35.829,9.467,43.96,53.06,65,60h58q6,4.005,12,8c25.029,6.62,58.709-3.73,65-18h1c-1.589,9.18-6.681,9.24-8,19,4.492,13.88,10.571,18.64,20,27,21.54,0.53,61.354-26.88,62-47-2.656-6.21-5.469-8.9-10-13-24.476,1.06-42.537,12.77-64,14-0.077-10,5.733-19.46,12-23,7-1.55,8.295,6.34,16,5,59.248-10.321,96.935-41.275,176-27,5.98,10.186,1.39,24.67,13,30h15c3.96,11.23,4.49,24.55,14,30,22.62,9.79,38.9-7.63,47-17-1.47-17.23-22.37-31.01-14-53,3.02-4.269,92.85-9.569,101-8,4.4,11.856,5.78,15.716,14,23l64-2c6.92,2.22,13.16,12.677,28,8,13.06-4.114,26.74-27.1,48-19l18,15c18.35,6.15,43.08-3.431,56-6l48,4c16.5,3.258,30.5-3.3,40-6l16,2c16.44,3.223,49.41-3.512,58-11q3.495-14.5,7-29c10.17,5.491,19.83,6.306,35,9,8.7,14.053,14.59,29.757,26,41,39.41,0.423,79.52,1.509,100-17,5.33-4.819,5.08-16.976,11-21v2c0.33,2,.67,4,1,6l22-3c5.77-8.645,8.23-13.927,13-25,14.28,4.421,19.82,9.266,29,18,57.49,0.3,22.3-40.735,47-56,8.68-3.422,22.71-.275,35,0v384H0V0ZM364,432c62.2-.753,72.242,45.544,81,97-39.242,23.352-113.1-40-96-81C352.084,440.794,358.549,436.849,364,432ZM280,802c-10.72,5.187-54.7,15.311-45,31,17.1,27.448,74.109-2.03,55-29ZM156,868c-5.771,5.11-9.418,8.387-10,19,18.442,34.679,57.441,18.232,76-3q-0.5-6-1-12l-3-1Zm1106,138c-9.2,7.17-19.57,10.84-20,27q4.995,5.505,10,11c19.8,1.03,52.66-7.68,48-28C1297.21,1003.85,1277.53,1005.22,1262,1006Zm-292,6c-8.754,6.2-13.479,13.01-21,20v4c9.459,7.54,28.836,22.33,51,13,5.2-2.14,7.46-5.27,10-10-3.78-6.95-5.16-12.6-7-23C995.793,1011.28,982.67,1011.69,970,1012Zm-42,30c-10.019,7.6-18.884,14-28,22-0.746,28.37,4.036,33.68,18,46,2.666-.33,5.334-0.67,8-1,5.4-2.2,16.422-11.44,18-17q-1-7.995-2-16c3.232-12.59,21.919-20.38-2-33Q934,1042.505,928,1042Zm-218,10c-5.126,2.4-14.613,2.43-19,5v2c-5.962,22.47,17.719,39.13,29,49C776.862,1109.63,756.553,1056.03,710,1052Z"/>
</svg>
